<svg viewBox="0 0 600 720" xmlns="http://www.w3.org/2000/svg">
  <rect x="0" y="0" width="600" height="720" fill="#ffffff"/>
  <g fill="none" stroke="#1a1a1a" stroke-linecap="round" stroke-linejoin="round">
    <!-- hook + finial -->
    <path d="M300,120 C300,94 334,94 332,73 C331,59 314,59 312,76" stroke-width="2.2"/>
    <circle cx="300" cy="126" r="6" stroke-width="2.2"/>
    <!-- top ring -->
    <ellipse cx="300" cy="151" rx="34" ry="10" stroke-width="2.2"/>
    <!-- bars -->
    <g stroke-width="1.6">
      <path d="M268,159 Q128,352 152,538"/>
      <path d="M281,159 Q190,352 200,538"/>
      <path d="M291,159 Q246,352 250,538"/>
      <path d="M300,159 Q300,352 300,538"/>
      <path d="M309,159 Q354,352 350,538"/>
      <path d="M319,159 Q410,352 400,538"/>
      <path d="M332,159 Q472,352 448,538"/>
    </g>
    <!-- mid hoop -->
    <ellipse cx="300" cy="356" rx="172" ry="34" stroke-width="1.6"/>
    <!-- base ring -->
    <ellipse cx="300" cy="545" rx="150" ry="26" stroke-width="2.2"/>
    <path d="M150,545 Q300,580 450,545" stroke-width="2.2"/>
    <!-- perch + perched birds (held inside) -->
    <line x1="232" y1="474" x2="356" y2="474" stroke-width="1.6"/>
    <line x1="296" y1="474" x2="296" y2="520" stroke-width="1.4"/>
    <g stroke-width="1.8">
      <ellipse cx="262" cy="456" rx="15" ry="9"/>
      <circle cx="248" cy="448" r="6"/>
      <path d="M243,447 L235,450 L243,452"/>
      <path d="M276,453 L291,448"/>
      <line x1="262" y1="465" x2="262" y2="474"/>
      <line x1="268" y1="465" x2="268" y2="474"/>
    </g>
    <circle cx="246" cy="446" r="1.3" fill="#1a1a1a"/>
    <g stroke-width="1.8">
      <ellipse cx="334" cy="452" rx="14" ry="8"/>
      <circle cx="348" cy="445" r="5.5"/>
      <path d="M353,444 L360,447 L353,449"/>
      <path d="M321,450 L307,445"/>
      <line x1="332" y1="460" x2="332" y2="474"/>
      <line x1="338" y1="460" x2="338" y2="474"/>
    </g>
    <circle cx="350" cy="443" r="1.2" fill="#1a1a1a"/>
    <!-- the door: the single controlled way out -->
    <path d="M322,526 L322,455 Q362,431 402,455 L402,526" stroke-width="2.6"/>
    <!-- open door flap, swung out -->
    <path d="M402,455 Q438,451 460,476 L460,550 Q438,554 402,526" stroke-width="2.2"/>
    <path d="M418,463 Q424,505 432,544" stroke-width="1.3"/>
    <path d="M438,467 Q444,506 450,546" stroke-width="1.3"/>
    <circle cx="402" cy="460" r="2" fill="#1a1a1a"/>
    <circle cx="402" cy="522" r="2" fill="#1a1a1a"/>
    <!-- small open padlock on the frame: a deliberate, controlled opening -->
    <rect x="332" y="492" width="20" height="16" rx="3" stroke-width="1.5"/>
    <path d="M336,492 L336,484 Q336,476 344,476 Q351,476 351,483" stroke-width="1.5"/>
    <circle cx="342" cy="500" r="1.6" fill="#1a1a1a"/>
    <!-- one bird at the threshold, stepping out -->
    <g stroke-width="1.8">
      <ellipse cx="418" cy="494" rx="13" ry="8"/>
      <circle cx="431" cy="487" r="5"/>
      <path d="M436,486 L442,488 L436,490"/>
      <path d="M414,490 Q420,478 427,488"/>
      <path d="M406,496 L396,492"/>
    </g>
    <circle cx="433" cy="486" r="1.1" fill="#1a1a1a"/>
    <!-- traced flight path: the one egress you can actually see -->
    <path d="M430,480 Q470,400 500,300 Q514,256 522,236" stroke-width="1.3" stroke-dasharray="2 7"/>
    <!-- the bird that made it out, flying off (single permitted egress) -->
    <path d="M498,238 Q516,219 526,238 Q536,219 554,238" stroke-width="1.9"/>
    <path d="M548,196 Q560,184 567,196 Q574,184 586,196" stroke-width="1.5"/>
  </g>
</svg>
